<?xml version="1.0" standalone="no"?>
<!DOCTYPE svg PUBLIC "-//W3C//DTD SVG 20010904//EN"
 "http://www.w3.org/TR/2001/REC-SVG-20010904/DTD/svg10.dtd">
<svg version="1.0" xmlns="http://www.w3.org/2000/svg"
 width="1161.000000pt" height="1161.000000pt" viewBox="0 0 1161.000000 1161.000000"
 preserveAspectRatio="xMidYMid meet">
<metadata>
Created by potrace 1.14, written by Peter Selinger 2001-2017
</metadata>
<g transform="translate(0.000000,1161.000000) scale(0.100000,-0.100000)"
fill="#000000" stroke="none">
<path d="M5898 11605 c-2 -2 -53 -6 -115 -9 -62 -4 -120 -9 -130 -10 -10 -2
-52 -7 -93 -11 -41 -4 -82 -8 -90 -10 -8 -2 -46 -6 -84 -9 -38 -4 -73 -9 -76
-11 -4 -2 -29 -7 -56 -10 -27 -4 -107 -18 -179 -31 -71 -14 -143 -27 -160 -30
-51 -9 -351 -83 -442 -110 -151 -43 -408 -126 -417 -135 -6 -5 -16 -9 -23 -9
-13 0 -260 -95 -338 -130 -22 -10 -86 -39 -143 -64 -212 -95 -546 -271 -690
-362 -29 -19 -54 -34 -56 -34 -8 0 -377 -245 -400 -265 -6 -6 -45 -35 -86 -65
-306 -222 -707 -593 -955 -885 -27 -32 -55 -63 -60 -69 -44 -45 -292 -378
-355 -476 -83 -129 -146 -231 -219 -360 -106 -186 -268 -542 -349 -770 -90
-252 -188 -622 -226 -860 -3 -19 -8 -46 -10 -60 -5 -29 -14 -97 -21 -155 -3
-22 -7 -53 -9 -70 -3 -16 -8 -66 -12 -110 -3 -44 -8 -91 -10 -105 -1 -14 -5
-110 -9 -215 l-6 -190 64 106 c164 270 370 555 581 799 128 150 449 468 596
591 263 221 567 436 810 571 25 14 61 34 80 46 75 44 382 193 507 246 167 71
476 184 549 201 10 2 57 16 104 30 73 22 294 79 355 91 11 2 31 6 45 9 52 11
218 41 280 50 82 12 109 15 145 19 101 11 156 16 231 21 l81 4 124 81 c68 44
131 83 139 87 8 4 31 16 50 28 19 12 58 34 85 50 28 15 77 43 110 62 55 30
434 219 530 263 217 100 590 242 820 311 116 36 309 89 344 96 14 2 27 6 31 8
13 8 361 80 435 90 22 3 49 8 61 10 30 7 159 25 219 31 28 3 64 7 80 9 206 27
878 27 1010 0 11 -2 47 -7 80 -10 341 -34 849 -169 1163 -311 29 -13 55 -24
57 -24 5 0 261 -126 285 -140 8 -5 65 -37 125 -71 134 -76 311 -193 465 -307
63 -47 117 -89 120 -92 14 -15 170 -140 170 -135 0 19 -443 672 -553 815 -190
247 -468 527 -757 764 -131 106 -425 311 -565 392 -27 16 -57 34 -66 39 -118
69 -384 207 -509 263 -422 188 -755 296 -1290 417 -74 17 -395 70 -485 80 -32
4 -66 8 -75 10 -9 2 -56 6 -106 10 -49 4 -98 9 -109 12 -22 5 -592 13 -597 8z"/>
<path d="M11169 8494 c-9 -166 -84 -367 -198 -527 -167 -235 -428 -402 -758
-486 -80 -21 -102 -25 -182 -37 -25 -4 -55 -8 -66 -10 -89 -17 -387 -23 -550
-11 -207 16 -432 47 -595 83 -14 3 -36 7 -50 10 -14 3 -33 7 -42 10 -10 3 -30
7 -45 10 -16 3 -55 12 -88 21 -33 8 -69 17 -81 19 -70 13 -358 101 -664 204
-476 159 -597 195 -860 259 -91 22 -180 43 -199 46 -19 3 -37 7 -40 9 -3 2
-23 7 -44 10 -21 3 -71 13 -110 21 -84 16 -210 38 -287 49 -230 34 -295 41
-500 61 -175 16 -292 20 -625 19 -326 0 -462 -4 -610 -19 -162 -15 -249 -25
-274 -30 -9 -1 -45 -6 -81 -10 -36 -4 -67 -8 -70 -10 -3 -2 -30 -6 -60 -10
-30 -4 -57 -8 -60 -10 -3 -2 -30 -6 -60 -10 -30 -4 -57 -8 -60 -10 -3 -2 -25
-6 -50 -10 -25 -4 -47 -8 -51 -10 -3 -2 -19 -7 -35 -9 -246 -45 -661 -171
-904 -273 -58 -25 -143 -58 -190 -75 -341 -120 -776 -352 -1022 -542 -14 -12
-41 -32 -59 -46 -141 -106 -357 -306 -479 -446 -254 -287 -451 -620 -578 -974
-33 -89 -80 -247 -88 -290 -3 -14 -7 -31 -10 -39 -2 -8 -7 -30 -10 -50 -3 -20
-9 -52 -14 -71 -4 -19 -11 -57 -15 -83 -3 -27 -8 -56 -10 -65 -27 -143 -28
-667 -1 -808 2 -11 7 -41 10 -69 33 -247 145 -642 251 -880 7 -16 26 -59 41
-95 92 -215 259 -498 423 -715 89 -118 166 -208 288 -334 l93 -96 -35 105
c-89 265 -153 566 -182 855 -10 101 -10 577 0 670 10 82 14 111 32 225 13 80
16 97 30 160 3 14 7 34 9 45 44 228 224 688 342 872 19 29 34 56 34 59 0 11
99 156 181 264 387 511 899 867 1565 1089 160 53 407 114 589 145 152 26 172
29 280 41 33 4 76 8 95 10 230 26 858 26 1080 0 66 -7 155 -17 190 -21 84 -8
353 -58 481 -88 161 -39 486 -136 554 -166 11 -5 79 -32 150 -60 131 -52 287
-124 250 -115 -24 5 -67 12 -120 19 -22 3 -89 12 -150 20 -60 8 -144 18 -185
21 -41 4 -91 8 -110 11 -183 21 -772 21 -985 0 -22 -3 -71 -7 -110 -10 -38 -4
-86 -8 -105 -10 -19 -3 -66 -8 -105 -11 -38 -4 -81 -8 -95 -10 -26 -4 -82 -11
-160 -20 -25 -3 -88 -13 -140 -21 -52 -9 -111 -18 -130 -21 -19 -2 -106 -20
-192 -39 -565 -124 -1037 -335 -1453 -648 -295 -221 -591 -542 -800 -865 -150
-233 -323 -584 -339 -687 -4 -21 -13 -77 -21 -124 -8 -47 -17 -105 -20 -130
-4 -25 -13 -88 -22 -140 -47 -286 -9 -703 90 -1000 54 -160 64 -186 124 -310
226 -464 602 -924 1050 -1281 67 -54 151 -117 185 -140 35 -23 65 -45 68 -49
26 -33 416 -253 605 -342 474 -223 1059 -379 1580 -423 39 -3 86 -8 105 -10
19 -3 71 -7 115 -10 44 -2 125 -8 180 -12 137 -9 833 -9 980 1 164 10 249 18
360 31 22 3 63 7 90 10 28 3 64 7 80 9 17 3 53 7 80 11 28 3 59 8 71 10 12 3
39 7 60 10 21 3 62 10 89 15 28 5 64 12 80 15 17 3 41 7 55 10 14 3 48 10 75
15 77 15 263 60 335 81 36 10 74 20 85 22 11 2 27 7 35 10 8 3 33 11 55 16 22
6 108 33 190 60 426 141 834 334 1196 564 72 47 289 198 322 227 12 10 68 55
125 101 122 97 374 344 456 446 l58 72 -40 38 c-55 52 -450 435 -582 563 -60
58 -206 200 -326 315 -120 116 -250 242 -290 280 -127 124 -105 119 -177 40
-567 -620 -1216 -1008 -2007 -1200 -66 -16 -281 -56 -350 -65 -47 -6 -99 -13
-117 -15 -192 -28 -769 -27 -898 0 -11 3 -40 7 -65 10 -25 2 -55 7 -66 9 -12
2 -39 7 -60 10 -37 6 -113 18 -124 21 -3 1 -25 5 -50 9 -89 15 -327 79 -453
122 -646 221 -1095 586 -1291 1053 -46 109 -90 259 -102 346 -3 28 -9 59 -11
70 -3 11 -6 97 -8 190 -4 247 25 404 108 570 160 324 478 542 952 655 102 24
185 39 370 65 182 26 817 27 975 1 14 -3 61 -7 104 -11 43 -4 87 -8 97 -10 9
-2 39 -6 66 -10 79 -11 107 -15 133 -20 14 -2 57 -7 95 -10 39 -4 84 -8 100
-10 17 -2 75 -7 130 -11 55 -3 118 -8 140 -9 80 -6 262 -17 360 -21 122 -4
705 -4 795 1 124 6 265 15 320 20 111 11 214 21 290 30 54 7 120 14 180 20 30
3 66 7 80 10 14 2 61 9 105 15 105 15 115 17 230 36 17 3 85 18 153 34 315 76
589 201 822 376 132 99 166 129 320 284 339 342 561 720 665 1135 18 72 36
155 39 186 4 31 9 67 13 80 3 13 7 116 8 229 2 228 -14 395 -60 605 -32 143
-84 325 -115 400 -4 11 -14 36 -21 55 -24 69 -110 238 -129 255 -19 17 -20 17
-21 -1z"/>
</g>
</svg>
